<svg xmlns="http://www.w3.org/2000/svg" viewBox="0 0 66.54 51.37">
  <defs>
    <style>
      .cls-1 {
        fill: #fce099;
      }

      .cls-2 {
        fill: #fab729;
      }

      .cls-3 {
        fill: #fcc453;
      }
    </style>
  </defs>
  <title>paper</title>
      <g id="paper">
        <polygon id="piece_19" class="cls-1" points="0 14.26 5.16 18.51 10.21 9.3 0 14.26" />
        <polygon id="piece_18" class="cls-1" points="5.16 18.51 15.57 30.74 20.33 28.32 5.16 18.51" />
        <polygon id="piece_17" class="cls-2" points="20.33 28.32 10.21 9.3 5.16 18.51 20.33 28.32" />
        <polygon id="piece_16" class="cls-2" points="10.21 9.3 21.24 6.17 31.25 24.62 10.21 9.3" />
        <polygon id="piece_15" class="cls-3" points="31.25 24.62 45.91 8.19 21.24 6.17 31.25 24.62" />
        <polygon id="piece_14" class="cls-1" points="21.24 6.17 32.87 0 45.91 8.19 21.24 6.17" />
        <polygon id="piece_13" class="cls-3" points="32.87 0 41.46 0 45.91 8.19 32.87 0" />
        <polygon id="piece_12" class="cls-1" points="20.33 28.32 31.25 24.62 10.21 9.3 20.33 28.32" />
        <polygon id="piece_11" class="cls-1" points="31.25 24.62 22.05 40.15 16.48 31.25 20.33 28.32 31.25 24.62" />
        <polygon id="piece_10" class="cls-2" points="45.91 8.19 50.06 18.51 47.98 28.32 31.25 24.62 45.91 8.19" />
        <polygon id="piece_9" class="cls-3" points="50.06 18.51 58.65 24.07 47.98 28.32 50.06 18.51" />
        <polygon id="piece_8" class="cls-2" points="58.65 24.07 58.65 26.6 47.98 28.32 58.65 24.07" />
        <polygon id="piece_7" class="cls-3"
          points="58.65 26.6 66.54 32.87 65.33 37.42 55.21 40.15 47.98 28.32 58.65 26.6" />
        <polygon id="piece_6" class="cls-1" points="55.21 40.15 50.06 42.67 47.98 28.32 55.21 40.15" />
        <polygon id="piece_5" class="cls-3" points="50.06 42.67 44.7 44.6 38.12 34.69 47.98 28.32 50.06 42.67" />
        <polygon id="piece_4" class="cls-1" points="44.7 44.6 40.24 43.41 38.12 34.69 44.7 44.6" />
        <polygon id="piece_3" class="cls-3" points="40.65 43.48 41.87 45.71 28.11 51.37 22.05 40.15 40.65 43.48" />
        <polygon id="piece_2" class="cls-2" points="31.25 24.62 22.05 40.15 40.65 43.48 38.12 34.69 31.25 24.62" />
        <polygon id="piece_1" class="cls-1" points="47.98 28.32 31.25 24.62 38.12 34.69 47.98 28.32" />
      </g>
</svg>