<svg xmlns="http://www.w3.org/2000/svg" viewBox="0 0 44.19 75.14">
  <defs>
    <style>
      .cls-1 {
        fill: #202b51;
      }

      .cls-2 {
        fill: #575756;
      }

      .cls-3 {
        fill: #9d9d9c;
      }
    </style>
  </defs>
  <title>scissors</title>
  <g id="scissors">
    <g id="part_2">
      <g id="hand_2">
        <path class="cls-1"
          d="M42.91,65.07c-1.33-1.73-3.44-2.63-5.07-4.07-3-2.64-4-6.77-4.92-10.64-.83-3.56-1.77-7-2.6-10.51C29.58,41,28.63,42,27.89,43.12c.1,6.39.19,12.78-.13,19.15a17.55,17.55,0,0,0,.29,5.7,13.6,13.6,0,0,0,1.65,3.41,9.78,9.78,0,0,0,2.22,2.32,5,5,0,0,0,2.14.94,10.11,10.11,0,0,0,6.18,0,6.23,6.23,0,0,0,2.67-9.6Zm-1.36,4.81c-.8,2.17-3.78,3.05-6.66,2S30.34,68.18,31.14,66s3.78-3,6.66-2S42.35,67.72,41.55,69.88Z" />
      </g>
      <polygon id="blade_2" class="cls-2" points="28.25 0 22.13 39.53 27.82 43.32 30.32 39.88 28.25 0" />
    </g>
    <g id="part_1">
      <g id="hand_1">
        <path class="cls-1"
          d="M21.82,38.56c-1.81,3.18-3.68,6.17-5.49,9.34-2,3.46-4.15,7.12-7.74,8.8-2,.93-4.25,1.19-6,2.47A6.31,6.31,0,0,0,0,64.11a6.37,6.37,0,0,0,2.41,5,10.13,10.13,0,0,0,5.93,1.72,5.2,5.2,0,0,0,2.32-.29A9.89,9.89,0,0,0,13.45,69,13.56,13.56,0,0,0,16,66.17a17.36,17.36,0,0,0,1.91-5.38c1.5-6.2,3.4-12.3,5.31-18.4C22.83,41.1,22.2,39.86,21.82,38.56Zm-12,29.09c-2.87,1.07-5.85.18-6.65-2s.87-4.78,3.75-5.85,5.85-.18,6.65,2S12.71,66.59,9.83,67.65Z" />
      </g>
      <polygon id="blade_1" class="cls-3" points="35.12 0.95 29.75 40.59 23.22 42.6 21.81 38.59 35.12 0.95" />
    </g>
    <circle id="nail" class="cls-2" cx="26.22" cy="37.27" r="2.05" />
  </g>
</svg>